<svg width="16" height="14" viewBox="0 0 16 14" fill="none" xmlns="http://www.w3.org/2000/svg">
<path d="M1.072 7.252C1.04 7.252 1.016 7.244 1 7.228C0.976 7.212 0.972 7.2 0.988 7.192C1.172 7.048 1.324 6.904 1.444 6.76C1.572 6.616 1.7 6.432 1.828 6.208L1.996 5.92C2.156 5.648 2.336 5.336 2.536 4.984C2.736 4.632 2.936 4.276 3.136 3.916C3.344 3.556 3.532 3.224 3.7 2.92C3.876 2.616 4.016 2.372 4.12 2.188C4.224 1.996 4.276 1.9 4.276 1.9C4.492 1.524 4.728 1.24 4.984 1.048C5.248 0.848 5.48 0.72 5.68 0.664C5.096 0.672 4.576 0.716 4.12 0.796C3.664 0.876 3.356 1.064 3.196 1.36C3.164 1.416 3.14 1.48 3.124 1.552C3.116 1.616 3.112 1.68 3.112 1.744C3.112 1.952 3.168 2.1 3.28 2.188C3.288 2.196 3.292 2.204 3.292 2.212C3.292 2.228 3.276 2.244 3.244 2.26C3.22 2.276 3.196 2.28 3.172 2.272C3.1 2.232 3.012 2.136 2.908 1.984C2.804 1.824 2.74 1.692 2.716 1.588C2.692 1.492 2.68 1.404 2.68 1.324C2.68 1.108 2.756 0.94 2.908 0.819999C3.06 0.7 3.244 0.616 3.46 0.568C3.684 0.52 3.912 0.491999 4.144 0.483999C4.376 0.476 4.568 0.472 4.72 0.472H5.2C5.36 0.472 5.532 0.472 5.716 0.472C5.908 0.464 6.068 0.448 6.196 0.424H6.244C6.292 0.424 6.328 0.44 6.352 0.472C6.376 0.504 6.388 0.536 6.388 0.568C6.388 0.632 6.36 0.664 6.304 0.664C6.272 0.664 6.244 0.664 6.22 0.664C6.204 0.656 6.18 0.651999 6.148 0.651999C5.78 0.651999 5.412 0.972 5.044 1.612C5.044 1.612 5 1.684 4.912 1.828C4.832 1.964 4.728 2.14 4.6 2.356C4.48 2.572 4.352 2.8 4.216 3.04C4.08 3.28 3.96 3.496 3.856 3.688C3.64 4.088 3.408 4.524 3.16 4.996C2.92 5.46 2.672 5.944 2.416 6.448C2.36 6.544 2.312 6.656 2.272 6.784C2.232 6.904 2.172 6.964 2.092 6.964C2.06 6.964 2.02 6.96 1.972 6.952C1.924 6.944 1.872 6.94 1.816 6.94C1.68 6.94 1.556 6.964 1.444 7.012C1.34 7.06 1.232 7.136 1.12 7.24C1.112 7.248 1.096 7.252 1.072 7.252ZM6.304 7.132C6.104 7.132 5.9 7.068 5.692 6.94C5.484 6.804 5.272 6.596 5.056 6.316C4.8 5.972 4.584 5.64 4.408 5.32C4.232 4.992 4.088 4.708 3.976 4.468C3.872 4.228 3.792 4.056 3.736 3.952C4.184 3.536 4.644 3.164 5.116 2.836C5.596 2.508 6.072 2.196 6.544 1.9C6.864 1.708 7.208 1.496 7.576 1.264C7.944 1.024 8.316 0.824 8.692 0.664C8.956 0.552 9.212 0.495999 9.46 0.495999C9.572 0.495999 9.684 0.507999 9.796 0.532C9.908 0.548 10.016 0.576 10.12 0.616C10.2 0.64 10.292 0.691999 10.396 0.771999C10.5 0.843999 10.544 0.927999 10.528 1.024C10.528 1.056 10.512 1.072 10.48 1.072C10.44 1.072 10.404 1.048 10.372 1C10.34 0.952 10.292 0.904 10.228 0.856C10.164 0.808 10.064 0.784 9.928 0.784C9.752 0.784 9.556 0.82 9.34 0.892C9.132 0.964 8.948 1.032 8.788 1.096C8.468 1.232 8.132 1.38 7.78 1.54C7.428 1.7 7.096 1.868 6.784 2.044C6.504 2.196 6.208 2.372 5.896 2.572C5.584 2.772 5.28 2.976 4.984 3.184C4.696 3.384 4.436 3.568 4.204 3.736C4.252 3.856 4.332 4.036 4.444 4.276C4.556 4.516 4.704 4.788 4.888 5.092C5.072 5.388 5.288 5.688 5.536 5.992C5.72 6.216 5.9 6.38 6.076 6.484C6.26 6.58 6.432 6.628 6.592 6.628C6.808 6.628 7.008 6.568 7.192 6.448C7.384 6.32 7.564 6.16 7.732 5.968C7.908 5.776 8.072 5.58 8.224 5.38C8.264 5.332 8.292 5.308 8.308 5.308C8.34 5.308 8.356 5.328 8.356 5.368C8.356 5.416 8.336 5.464 8.296 5.512C7.944 6 7.604 6.392 7.276 6.688C6.956 6.984 6.632 7.132 6.304 7.132Z" fill="#FDDDC9"/>
<path d="M4.644 12.004C4.396 12.004 4.16 11.932 3.936 11.788C3.712 11.644 3.544 11.428 3.432 11.14C3.392 11.036 3.368 10.924 3.36 10.804C3.344 10.692 3.336 10.58 3.336 10.468C3.336 10.356 3.356 10.3 3.396 10.3C3.436 10.3 3.456 10.332 3.456 10.396C3.456 10.772 3.552 11.056 3.744 11.248C3.928 11.44 4.164 11.536 4.452 11.536C4.732 11.536 5.004 11.456 5.268 11.296C5.524 11.136 5.764 10.932 5.988 10.684C6.364 10.276 6.704 9.812 7.008 9.292C7.32 8.764 7.6 8.22 7.848 7.66C7.912 7.524 8.004 7.308 8.124 7.012C8.244 6.708 8.376 6.38 8.52 6.028C8.664 5.668 8.804 5.344 8.94 5.056C9.06 4.784 9.16 4.568 9.24 4.408C9.328 4.248 9.444 4.112 9.588 4C9.732 3.888 9.948 3.776 10.236 3.664C10.108 3.672 9.988 3.684 9.876 3.7C9.764 3.708 9.676 3.712 9.612 3.712C9.308 3.72 9.004 3.74 8.7 3.772C8.396 3.804 8.124 3.864 7.884 3.952C7.644 4.032 7.472 4.148 7.368 4.3C7.296 4.404 7.26 4.524 7.26 4.66C7.26 4.796 7.296 4.928 7.368 5.056C7.44 5.184 7.532 5.276 7.644 5.332C7.66 5.348 7.668 5.36 7.668 5.368C7.668 5.384 7.648 5.404 7.608 5.428C7.576 5.444 7.54 5.448 7.5 5.44C7.436 5.4 7.356 5.336 7.26 5.248C7.164 5.152 7.076 5.052 6.996 4.948C6.924 4.844 6.876 4.756 6.852 4.684C6.82 4.588 6.804 4.492 6.804 4.396C6.804 4.204 6.872 4.048 7.008 3.928C7.152 3.808 7.336 3.716 7.56 3.652C7.784 3.588 8.024 3.544 8.28 3.52C8.544 3.488 8.796 3.472 9.036 3.472C9.284 3.464 9.496 3.46 9.672 3.46H10.968C10.984 3.46 10.992 3.464 10.992 3.472C10.992 3.496 10.964 3.532 10.908 3.58C10.86 3.62 10.828 3.64 10.812 3.64C10.588 3.648 10.388 3.732 10.212 3.892C10.044 4.052 9.896 4.236 9.768 4.444C9.648 4.644 9.548 4.828 9.468 4.996C9.42 5.092 9.344 5.248 9.24 5.464C9.144 5.672 9.036 5.912 8.916 6.184C8.804 6.448 8.688 6.712 8.568 6.976C8.456 7.24 8.356 7.468 8.268 7.66C8.06 8.14 7.864 8.588 7.68 9.004C7.504 9.412 7.308 9.796 7.092 10.156C6.876 10.516 6.608 10.868 6.288 11.212C6.088 11.428 5.836 11.612 5.532 11.764C5.22 11.924 4.924 12.004 4.644 12.004Z" fill="#FDDDC9"/>
<path d="M8.132 13.228C8.076 13.228 8.032 13.212 8 13.18C7.968 13.156 7.968 13.136 8 13.12C8.176 13.088 8.328 13.024 8.456 12.928C8.584 12.824 8.688 12.696 8.768 12.544C8.936 12.264 9.1 11.984 9.26 11.704C9.42 11.416 9.576 11.128 9.728 10.84L10.88 8.716C11.064 8.388 11.224 8.072 11.36 7.768C11.504 7.464 11.616 7.244 11.696 7.108C11.752 7.004 11.848 6.912 11.984 6.832C12.128 6.744 12.268 6.676 12.404 6.628C12.356 6.628 12.308 6.628 12.26 6.628C12.212 6.62 12.16 6.616 12.104 6.616C11.856 6.616 11.584 6.632 11.288 6.664C11 6.688 10.716 6.728 10.436 6.784C10.164 6.84 9.924 6.916 9.716 7.012C9.508 7.108 9.368 7.224 9.296 7.36C9.264 7.432 9.236 7.504 9.212 7.576C9.188 7.648 9.176 7.72 9.176 7.792C9.176 7.976 9.24 8.108 9.368 8.188C9.376 8.188 9.38 8.196 9.38 8.212C9.38 8.228 9.364 8.244 9.332 8.26C9.308 8.276 9.284 8.28 9.26 8.272C9.188 8.232 9.1 8.136 8.996 7.984C8.892 7.824 8.828 7.692 8.804 7.588C8.78 7.492 8.768 7.404 8.768 7.324C8.768 7.116 8.836 6.956 8.972 6.844C9.108 6.724 9.28 6.64 9.488 6.592C9.696 6.536 9.908 6.504 10.124 6.496C10.348 6.48 10.544 6.472 10.712 6.472C10.968 6.472 11.272 6.472 11.624 6.472C11.976 6.464 12.3 6.46 12.596 6.46C12.668 6.46 12.748 6.46 12.836 6.46C12.924 6.452 13.016 6.448 13.112 6.448C13.328 6.448 13.552 6.46 13.784 6.484C14.016 6.508 14.228 6.56 14.42 6.64C14.612 6.72 14.76 6.844 14.864 7.012C14.968 7.188 15.02 7.38 15.02 7.588C15.02 7.788 14.98 7.988 14.9 8.188C14.82 8.388 14.724 8.56 14.612 8.704C14.54 8.792 14.456 8.88 14.36 8.968C14.264 9.056 14.156 9.14 14.036 9.22C13.916 9.3 13.784 9.376 13.64 9.448C13.504 9.512 13.34 9.564 13.148 9.604C13.14 9.604 13.132 9.616 13.124 9.64C13.124 9.664 13.132 9.676 13.148 9.676C13.188 9.684 13.256 9.696 13.352 9.712C13.456 9.72 13.548 9.732 13.628 9.748C13.908 9.804 14.14 9.924 14.324 10.108C14.516 10.284 14.612 10.524 14.612 10.828C14.612 11.172 14.52 11.488 14.336 11.776C14.16 12.064 13.932 12.312 13.652 12.52C13.372 12.72 13.08 12.876 12.776 12.988C12.392 13.132 11.952 13.204 11.456 13.204C11.16 13.204 10.852 13.176 10.532 13.12C10.212 13.064 9.92 12.968 9.656 12.832C9.6 12.8 9.544 12.776 9.488 12.76C9.432 12.736 9.372 12.724 9.308 12.724C9.196 12.724 9.076 12.756 8.948 12.82C8.868 12.852 8.764 12.912 8.636 13C8.508 13.088 8.364 13.16 8.204 13.216C8.188 13.224 8.164 13.228 8.132 13.228ZM11.072 13.036C11.28 13.036 11.488 13.016 11.696 12.976C11.904 12.928 12.092 12.872 12.26 12.808C12.556 12.696 12.828 12.54 13.076 12.34C13.324 12.132 13.524 11.888 13.676 11.608C13.836 11.32 13.916 11 13.916 10.648C13.916 10.416 13.856 10.24 13.736 10.12C13.616 9.992 13.464 9.904 13.28 9.856C13.096 9.808 12.904 9.784 12.704 9.784C12.552 9.784 12.408 9.792 12.272 9.808C12.136 9.824 12.012 9.844 11.9 9.868C11.676 9.908 11.476 9.952 11.3 10C11.268 9.984 11.272 9.956 11.312 9.916C11.352 9.868 11.404 9.816 11.468 9.76C11.54 9.704 11.596 9.66 11.636 9.628C11.652 9.612 11.684 9.588 11.732 9.556C11.788 9.516 11.832 9.496 11.864 9.496C12.256 9.496 12.604 9.472 12.908 9.424C13.22 9.376 13.488 9.26 13.712 9.076C13.936 8.884 14.12 8.588 14.264 8.188C14.336 7.98 14.372 7.776 14.372 7.576C14.372 7.344 14.316 7.144 14.204 6.976C14.092 6.8 13.912 6.696 13.664 6.664C13.632 6.656 13.596 6.652 13.556 6.652C13.516 6.652 13.476 6.652 13.436 6.652C13.284 6.652 13.116 6.672 12.932 6.712C12.756 6.752 12.624 6.828 12.536 6.94C12.336 7.204 12.144 7.504 11.96 7.84C11.776 8.168 11.6 8.504 11.432 8.848C11.264 9.184 11.104 9.5 10.952 9.796C10.768 10.156 10.58 10.52 10.388 10.888C10.196 11.256 10.008 11.628 9.824 12.004C9.776 12.1 9.752 12.192 9.752 12.28C9.752 12.44 9.852 12.596 10.052 12.748C10.188 12.852 10.344 12.928 10.52 12.976C10.704 13.016 10.888 13.036 11.072 13.036Z" fill="#FDDDC9"/>
</svg>
